<svg xmlns="http://www.w3.org/2000/svg" viewBox="0 0 1200 280" width="1200" height="280" role="img" aria-label="Do-hyeon Kim — Embedded, Mobile, AI">
  <title>Do-hyeon Kim — Embedded · Mobile · AI</title>
  <defs>
    <linearGradient id="aq" x1="0" y1="0" x2="1" y2="1">
      <stop offset="0" stop-color="#7FE9C3"/>
      <stop offset="1" stop-color="#C6F68D"/>
    </linearGradient>
  </defs>
  <rect width="1200" height="280" fill="#F7FBF3"/>
  <rect x="0" y="0" width="300" height="280" fill="url(#aq)"/>

  <g fill="#FBFFF7">
    <rect x="92" y="78" width="30" height="124"/>
    <rect x="178" y="78" width="30" height="124"/>
    <rect x="92" y="78" width="116" height="28"/>
    <rect x="122" y="126" width="56" height="28"/>
  </g>

  <text x="368" y="130" font-family="ui-sans-serif, -apple-system, 'Segoe UI', Roboto, Helvetica, Arial, sans-serif"
        font-size="58" font-weight="700" fill="#0F2F1E" letter-spacing="-1.5">Do-hyeon Kim</text>
  <rect x="370" y="152" width="100" height="4" fill="url(#aq)"/>
  <text x="370" y="196" font-family="ui-monospace, SFMono-Regular, Menlo, Consolas, monospace"
        font-size="17" fill="#5C7365" letter-spacing="2.5">EMBEDDED  ·  MOBILE  ·  AI</text>

  <g fill="none" stroke="#7FB89A" stroke-width="2.4" stroke-linecap="round" opacity="0.85">
    <rect x="912" y="122" width="36" height="36" rx="5"/>
    <rect x="923" y="133" width="14" height="14" rx="2"/>
    <path d="M920 122v-8M930 122v-8M940 122v-8M920 158v8M930 158v8M940 158v8M912 130h-8M912 140h-8M912 150h-8M948 130h8M948 140h8M948 150h8"/>
    <rect x="1002" y="116" width="27" height="48" rx="5"/>
    <path d="M1010 124h11"/>
    <circle cx="1015.5" cy="155" r="2"/>
    <path d="M1100 140l-14-14M1100 140l14-14M1100 140l-14 14M1100 140l14 14"/>
    <circle cx="1100" cy="140" r="5"/>
    <circle cx="1084" cy="124" r="4"/>
    <circle cx="1116" cy="124" r="4"/>
    <circle cx="1084" cy="156" r="4"/>
    <circle cx="1116" cy="156" r="4"/>
  </g>
</svg>
